# xmcd
#
# Track frame offsets:
#	150
#	2717
#	11477
#	17327
#	34672
#	37770
#	51907
#	75657
#	99295
#	105797
#	120547
#	124702
#	139140
#	142915
#	161985
#	180075
#
# Disc length: 2644 seconds
#
# Revision: 4
# Processed by: cddbd v1.5PL3 Copyright (c) Steve Scherf et al.
# Submitted via: audiograbber 1.82.02
#
DISCID=ae0a5210
DTITLE=Gitarkameratene - Gitarkameratene
DYEAR=1989
DGENRE=Vise
TTITLE0=Mot i brystet
TTITLE1=Fotformsko
TTITLE2=Welcome To The Show
TTITLE3=Tanta til Beate
TTITLE4=Fiskehistorie
TTITLE5=Den aller største noen noensinne hadde sett
TTITLE6=Sommerfuggel i vinterland
TTITLE7=Mang slags kjærlighet
TTITLE8=Optimister
TTITLE9=Se alltid lyst på livet
TTITLE10=Teater-erfaring
TTITLE11=La meg hugge min ved i fred
TTITLE12=Internasjonalt engasjement
TTITLE13=Frihet
TTITLE14=En natt forbi
TTITLE15=Heksedans/Bysommer/Vippetangen konditori/Levende lys
EXTD=YEAR: 1989
EXTT0=
EXTT1=
EXTT2=
EXTT3=
EXTT4=
EXTT5=
EXTT6=
EXTT7=
EXTT8=
EXTT9=
EXTT10=
EXTT11=
EXTT12=
EXTT13=
EXTT14=
EXTT15=
PLAYORDER=
